<svg xmlns="http://www.w3.org/2000/svg" width="44" height="63" viewBox="0 0 44 63"><defs><style>.cls-1{fill:#fff;fill-rule:evenodd}</style></defs><path id="Forma_1" data-name="Forma 1" class="cls-1" d="M1899.2 14187.8a8.05 8.05 0 1 0 8.03 8.1 8.058 8.058 0 0 0-8.03-8.1zm0 13.8a5.75 5.75 0 1 1 5.74-5.7 5.749 5.749 0 0 1-5.74 5.7zm15.36-21.1a21.874 21.874 0 0 0-31.12 0c-7.69 7.7-8.64 22.2-2.07 31l17.63 25.5 17.6-25.5c6.6-8.8 5.65-23.3-2.04-31zm.18 29.7L1899 14233l-15.76-22.9c-5.97-7.9-5.11-21 1.83-28a19.628 19.628 0 0 1 27.86 0c6.94 7 7.8 20.1 1.81 28.1z" transform="translate(-1877 -14174)"/></svg>